#!OML:ASF Y:\EmotionMaleHayes\Project 1\Capture day 1\Session 1\Male1.ASF
:FULLY-SPECIFIED
:DEGREES
557
root -16.5687 16.9067 0.957306 156.099 72.1255 162.403
lowerback 0.140535 0.302995 -8.9539
upperback 2.83674 0.636543 -1.05956
thorax 2.79809 0.147271 3.93139
lowerneck -29.3761 1.0563 3.76665
upperneck 30.059 1.68829 -4.4415
head 15.5986 0.582928 -2.14004
rclavicle 3.26659e-014 -3.3694e-014
rhumerus 35.946 15.974 -45.6911
rradius 39.7613
rwrist -1.28529
rhand -1.04623 -24.0281
rfingers 7.12502
rthumb 24.5879 -52.469
lclavicle 3.26659e-014 -3.3694e-014
lhumerus 38.4084 -17.8615 42.7416
lradius 37.9419
lwrist -2.04517
lhand 1.23959 -26.8117
lfingers 7.12502
lthumb 26.7771 1.31305
rfemur 2.70014 -10.2875 3.8198
rtibia 5.7656
rfoot -5.79431 -4.95371
rtoes 18.1959
lfemur 25.2756 -7.97946 -19.464
ltibia 14.8889
lfoot -7.58403 -1.79974
ltoes -16.1342
558
root -16.4764 16.9409 0.997442 155.635 71.7138 161.853
lowerback -0.169383 0.190855 -9.43774
upperback 2.96378 0.539417 -0.995238
thorax 3.12115 0.0689795 4.26896
lowerneck -29.5805 1.01509 3.69369
upperneck 29.9366 1.46427 -3.98971
head 15.566 0.54271 -1.98145
rclavicle -3.13396e-015 -3.06128e-014
rhumerus 35.9407 16.0522 -45.5018
rradius 39.6929
rwrist -1.76733
rhand -1.27383 -24.1869
rfingers 7.12502
rthumb 24.3697 -52.6574
lclavicle -3.13396e-015 -3.06128e-014
lhumerus 38.4023 -17.9677 42.9454
lradius 37.7872
lwrist -2.04615
lhand 1.61161 -27.1217
lfingers 7.12502
lthumb 27.1331 0.948009
rfemur 3.17848 -10.0386 3.63745
rtibia 5.55332
rfoot -6.27029 -5.16127
rtoes 19.207
lfemur 24.99 -7.71587 -19.2256
ltibia 15.3264
lfoot -6.1951 -1.90002
ltoes -13.4127
559
root -16.3849 16.9759 1.03783 155.231 71.3173 161.302
lowerback -1.10049 0.0091471 -10.0314
upperback 3.456 0.458023 -0.843588
thorax 4.18598 -0.054214 4.76362
lowerneck -29.9155 1.03131 3.67426
upperneck 29.4447 1.33956 -3.7395
head 15.3989 0.508175 -1.89248
rclavicle 1.9267e-014 -1.89591e-014
rhumerus 36.5411 16.0014 -44.7719
rradius 39.6534
rwrist -2.56034
rhand -1.38315 -25.0684
rfingers 7.12502
rthumb 24.2649 -53.5529
lclavicle 1.9267e-014 -1.89591e-014
lhumerus 38.7694 -17.4847 43.3023
lradius 37.5119
lwrist -2.29809
lhand 1.951 -27.3239
lfingers 7.12502
lthumb 27.4577 0.694764
rfemur 3.51978 -9.65475 3.54495
rtibia 5.4357
rfoot -6.75522 -5.54303
rtoes 19.1463
lfemur 24.6381 -7.52716 -19.0628
ltibia 15.8281
lfoot -5.29605 -2.05223
ltoes -13.1529
560
root -16.2954 17.0121 1.08018 155.34 71.0012 161.292
lowerback -2.12361 -0.212478 -10.3441
upperback 4.02633 0.344136 -0.727337
thorax 5.40276 -0.200457 5.06081
lowerneck -30.3263 1.06554 3.79477
upperneck 28.9128 1.19567 -3.56428
head 15.2321 0.468768 -1.86398
rclavicle 8.73915e-015 -4.5969e-016
rhumerus 37.323 15.7525 -44.3541
rradius 39.4338
rwrist -2.8221
rhand -0.85075 -25.4127
rfingers 7.12502
rthumb 24.7753 -53.828
lclavicle 8.73915e-015 -4.5969e-016
lhumerus 39.2996 -16.9642 43.2468
lradius 37.329
lwrist -2.48376
lhand 2.53886 -27.2943
lfingers 7.12502
lthumb 28.0198 0.63385
rfemur 3.79617 -9.18601 3.73861
rtibia 5.32051
rfoot -7.19938 -6.0716
rtoes 18.6247
lfemur 24.2608 -7.46124 -18.7188
ltibia 16.4396
lfoot -4.54627 -2.21535
ltoes -12.2278
561
root -16.2105 17.0429 1.12705 156.343 70.8315 162.183
lowerback -1.86907 -0.233781 -10.486
upperback 3.74081 0.242029 -0.395342
thorax 4.96863 -0.23837 5.48421
lowerneck -30.4926 0.810496 3.38838
upperneck 29.1621 0.845228 -3.06239
head 15.3582 0.356229 -1.66258
rclavicle 2.78279e-014 -1.49585e-014
rhumerus 36.9791 16.0237 -44.0809
rradius 39.3099
rwrist -2.64193
rhand 0.145982 -25.1286
rfingers 7.12502
rthumb 25.7302 -53.4091
lclavicle 2.78279e-014 -1.49585e-014
lhumerus 39.1392 -17.5994 43.2639
lradius 37.3526
lwrist -2.32508
lhand 3.55841 -27.3329
lfingers 7.12502
lthumb 28.994 0.431861
rfemur 3.97368 -8.68055 4.37476
rtibia 5.17227
rfoot -7.66162 -6.67575
rtoes 18.4051
lfemur 23.8289 -7.43899 -17.9308
ltibia 16.9989
lfoot -3.71303 -2.48641
ltoes -10.3354
